<mxfile host="Electron" agent="Mozilla/5.0 (Windows NT 10.0; Win64; x64) AppleWebKit/537.36 (KHTML, like Gecko) draw.io/25.0.2 Chrome/128.0.6613.186 Electron/32.2.5 Safari/537.36" version="25.0.2">
  <diagram name="Page-1" id="lam2A3DZFwsD6wP2p5Dj">
    <mxGraphModel dx="574" dy="354" grid="1" gridSize="10" guides="1" tooltips="1" connect="1" arrows="1" fold="1" page="1" pageScale="1" pageWidth="827" pageHeight="583" math="0" shadow="0">
      <root>
        <mxCell id="0" />
        <mxCell id="1" parent="0" />
        <mxCell id="ApvRFcBczbXoXY5R-yyq-1" value="Event 1" style="rounded=1;whiteSpace=wrap;html=1;fillColor=#d5e8d4;strokeColor=#82b366;gradientColor=#97d077;" parent="1" vertex="1">
          <mxGeometry x="35" y="140" width="50" height="70" as="geometry" />
        </mxCell>
        <mxCell id="ApvRFcBczbXoXY5R-yyq-3" value="Event 2" style="rounded=1;whiteSpace=wrap;html=1;fillColor=#f8cecc;strokeColor=#b85450;gradientColor=#ea6b66;" parent="1" vertex="1">
          <mxGeometry x="35" y="50" width="50" height="60" as="geometry" />
        </mxCell>
        <mxCell id="ApvRFcBczbXoXY5R-yyq-6" value="Calendar" style="text;html=1;align=center;verticalAlign=middle;whiteSpace=wrap;rounded=0;" parent="1" vertex="1">
          <mxGeometry x="30" y="20" width="60" height="30" as="geometry" />
        </mxCell>
        <mxCell id="ApvRFcBczbXoXY5R-yyq-7" value="TimeSheet" style="text;html=1;align=center;verticalAlign=middle;whiteSpace=wrap;rounded=0;" parent="1" vertex="1">
          <mxGeometry x="149" y="20" width="60" height="30" as="geometry" />
        </mxCell>
        <mxCell id="ApvRFcBczbXoXY5R-yyq-21" value="Event 2" style="rounded=1;whiteSpace=wrap;html=1;fillColor=#f8cecc;strokeColor=#b85450;gradientColor=#ea6b66;" parent="1" vertex="1">
          <mxGeometry x="545" y="60" width="50" height="90" as="geometry" />
        </mxCell>
        <mxCell id="ApvRFcBczbXoXY5R-yyq-24" value="Calendar" style="text;html=1;align=center;verticalAlign=middle;whiteSpace=wrap;rounded=0;" parent="1" vertex="1">
          <mxGeometry x="540" y="30" width="60" height="30" as="geometry" />
        </mxCell>
        <mxCell id="ApvRFcBczbXoXY5R-yyq-25" value="TimeSheet" style="text;html=1;align=center;verticalAlign=middle;whiteSpace=wrap;rounded=0;" parent="1" vertex="1">
          <mxGeometry x="659" y="30" width="60" height="30" as="geometry" />
        </mxCell>
        <mxCell id="ApvRFcBczbXoXY5R-yyq-32" value="Event 1" style="rounded=1;whiteSpace=wrap;html=1;fillColor=#d5e8d4;strokeColor=#82b366;gradientColor=#97d077;" parent="1" vertex="1">
          <mxGeometry x="260" y="45" width="50" height="109" as="geometry" />
        </mxCell>
        <mxCell id="ApvRFcBczbXoXY5R-yyq-33" value="Launch" style="rounded=1;whiteSpace=wrap;html=1;fillColor=#f8cecc;strokeColor=#b85450;gradientColor=#ea6b66;" parent="1" vertex="1">
          <mxGeometry x="310" y="84" width="50" height="24" as="geometry" />
        </mxCell>
        <mxCell id="ApvRFcBczbXoXY5R-yyq-36" value="Calendar" style="text;html=1;align=center;verticalAlign=middle;whiteSpace=wrap;rounded=0;" parent="1" vertex="1">
          <mxGeometry x="270" y="14" width="60" height="30" as="geometry" />
        </mxCell>
        <mxCell id="ApvRFcBczbXoXY5R-yyq-37" value="TimeSheet" style="text;html=1;align=center;verticalAlign=middle;whiteSpace=wrap;rounded=0;" parent="1" vertex="1">
          <mxGeometry x="370" y="14" width="60" height="30" as="geometry" />
        </mxCell>
        <mxCell id="ApvRFcBczbXoXY5R-yyq-56" value="Event 2" style="rounded=1;whiteSpace=wrap;html=1;fillColor=#f8cecc;strokeColor=#b85450;gradientColor=#ea6b66;" parent="1" vertex="1">
          <mxGeometry x="90" y="270" width="50" height="90" as="geometry" />
        </mxCell>
        <mxCell id="ApvRFcBczbXoXY5R-yyq-59" value="Calendar" style="text;html=1;align=center;verticalAlign=middle;whiteSpace=wrap;rounded=0;" parent="1" vertex="1">
          <mxGeometry x="80" y="240" width="60" height="30" as="geometry" />
        </mxCell>
        <mxCell id="ApvRFcBczbXoXY5R-yyq-60" value="TimeSheet" style="text;html=1;align=center;verticalAlign=middle;whiteSpace=wrap;rounded=0;" parent="1" vertex="1">
          <mxGeometry x="204" y="240" width="60" height="30" as="geometry" />
        </mxCell>
        <mxCell id="ApvRFcBczbXoXY5R-yyq-55" value="Event 1" style="rounded=1;whiteSpace=wrap;html=1;fillColor=#d5e8d4;strokeColor=#82b366;gradientColor=#97d077;" parent="1" vertex="1">
          <mxGeometry x="40" y="330" width="50" height="90" as="geometry" />
        </mxCell>
        <mxCell id="ApvRFcBczbXoXY5R-yyq-66" value="Event 3" style="rounded=1;whiteSpace=wrap;html=1;fillColor=#dae8fc;strokeColor=#6c8ebf;gradientColor=#7ea6e0;" parent="1" vertex="1">
          <mxGeometry x="140" y="350" width="50" height="40" as="geometry" />
        </mxCell>
        <mxCell id="ApvRFcBczbXoXY5R-yyq-72" value="Event 1" style="rounded=1;whiteSpace=wrap;html=1;fillColor=#d5e8d4;strokeColor=#82b366;gradientColor=#97d077;" parent="1" vertex="1">
          <mxGeometry x="349" y="270" width="50" height="150" as="geometry" />
        </mxCell>
        <mxCell id="ApvRFcBczbXoXY5R-yyq-75" value="Calendar" style="text;html=1;align=center;verticalAlign=middle;whiteSpace=wrap;rounded=0;" parent="1" vertex="1">
          <mxGeometry x="344" y="240" width="60" height="30" as="geometry" />
        </mxCell>
        <mxCell id="ApvRFcBczbXoXY5R-yyq-76" value="TimeSheet" style="text;html=1;align=center;verticalAlign=middle;whiteSpace=wrap;rounded=0;" parent="1" vertex="1">
          <mxGeometry x="470" y="240" width="60" height="30" as="geometry" />
        </mxCell>
        <mxCell id="ApvRFcBczbXoXY5R-yyq-88" value="Event 2" style="rounded=1;whiteSpace=wrap;html=1;fillColor=#f8cecc;strokeColor=#b85450;gradientColor=#ea6b66;" parent="1" vertex="1">
          <mxGeometry x="399" y="270" width="50" height="60" as="geometry" />
        </mxCell>
        <mxCell id="ApvRFcBczbXoXY5R-yyq-89" value="Event 1" style="rounded=1;whiteSpace=wrap;html=1;fillColor=#d5e8d4;strokeColor=#82b366;gradientColor=#97d077;" parent="1" vertex="1">
          <mxGeometry x="589" y="300" width="50" height="150" as="geometry" />
        </mxCell>
        <mxCell id="ApvRFcBczbXoXY5R-yyq-91" value="Calendar" style="text;html=1;align=center;verticalAlign=middle;whiteSpace=wrap;rounded=0;" parent="1" vertex="1">
          <mxGeometry x="604" y="240" width="60" height="30" as="geometry" />
        </mxCell>
        <mxCell id="ApvRFcBczbXoXY5R-yyq-92" value="TimeSheet" style="text;html=1;align=center;verticalAlign=middle;whiteSpace=wrap;rounded=0;" parent="1" vertex="1">
          <mxGeometry x="720" y="240" width="60" height="30" as="geometry" />
        </mxCell>
        <mxCell id="ApvRFcBczbXoXY5R-yyq-94" value="" style="shape=flexArrow;endArrow=classic;html=1;rounded=0;fillColor=#ffcd28;gradientColor=#ffa500;strokeColor=#d79b00;endWidth=7.209302325581396;endSize=6.574418604651163;" parent="1" edge="1">
          <mxGeometry width="50" height="50" relative="1" as="geometry">
            <mxPoint x="674" y="254.88" as="sourcePoint" />
            <mxPoint x="714" y="254.88" as="targetPoint" />
          </mxGeometry>
        </mxCell>
        <mxCell id="ApvRFcBczbXoXY5R-yyq-96" value="Event 2" style="rounded=1;whiteSpace=wrap;html=1;fillColor=#f8cecc;strokeColor=#b85450;gradientColor=#ea6b66;" parent="1" vertex="1">
          <mxGeometry x="639" y="270" width="50" height="90" as="geometry" />
        </mxCell>
        <mxCell id="gob5DYd8oA5bV7pTSi-1-5" value="Event 1" style="rounded=1;whiteSpace=wrap;html=1;fillColor=#d5e8d4;strokeColor=#82b366;gradientColor=#97d077;" parent="1" vertex="1">
          <mxGeometry x="50" y="520" width="50" height="150" as="geometry" />
        </mxCell>
        <mxCell id="gob5DYd8oA5bV7pTSi-1-7" value="Calendar" style="text;html=1;align=center;verticalAlign=middle;whiteSpace=wrap;rounded=0;" parent="1" vertex="1">
          <mxGeometry x="50" y="460" width="60" height="30" as="geometry" />
        </mxCell>
        <mxCell id="gob5DYd8oA5bV7pTSi-1-8" value="TimeSheet" style="text;html=1;align=center;verticalAlign=middle;whiteSpace=wrap;rounded=0;" parent="1" vertex="1">
          <mxGeometry x="184" y="460" width="60" height="30" as="geometry" />
        </mxCell>
        <mxCell id="gob5DYd8oA5bV7pTSi-1-12" value="Event 2" style="rounded=1;whiteSpace=wrap;html=1;fillColor=#f8cecc;strokeColor=#b85450;gradientColor=#ea6b66;" parent="1" vertex="1">
          <mxGeometry x="100" y="490" width="50" height="90" as="geometry" />
        </mxCell>
        <mxCell id="8_2ZYoCBY9e8-_BX9UNL-9" style="edgeStyle=orthogonalEdgeStyle;rounded=1;orthogonalLoop=1;jettySize=auto;html=1;exitX=1;exitY=0.5;exitDx=0;exitDy=0;entryX=0.5;entryY=0;entryDx=0;entryDy=0;curved=0;" parent="1" source="8_2ZYoCBY9e8-_BX9UNL-3" target="8_2ZYoCBY9e8-_BX9UNL-6" edge="1">
          <mxGeometry relative="1" as="geometry" />
        </mxCell>
        <mxCell id="8_2ZYoCBY9e8-_BX9UNL-10" value="Auto" style="edgeLabel;html=1;align=center;verticalAlign=middle;resizable=0;points=[];labelBackgroundColor=none;" parent="8_2ZYoCBY9e8-_BX9UNL-9" vertex="1" connectable="0">
          <mxGeometry x="-0.6239" y="-1" relative="1" as="geometry">
            <mxPoint x="-16" y="-15" as="offset" />
          </mxGeometry>
        </mxCell>
        <mxCell id="8_2ZYoCBY9e8-_BX9UNL-13" style="edgeStyle=orthogonalEdgeStyle;rounded=1;orthogonalLoop=1;jettySize=auto;html=1;exitX=0;exitY=0.5;exitDx=0;exitDy=0;entryX=0.5;entryY=0;entryDx=0;entryDy=0;curved=0;" parent="1" source="8_2ZYoCBY9e8-_BX9UNL-3" target="8_2ZYoCBY9e8-_BX9UNL-12" edge="1">
          <mxGeometry relative="1" as="geometry" />
        </mxCell>
        <mxCell id="8_2ZYoCBY9e8-_BX9UNL-14" value="Manual" style="edgeLabel;html=1;align=center;verticalAlign=middle;resizable=0;points=[];labelBackgroundColor=none;" parent="8_2ZYoCBY9e8-_BX9UNL-13" vertex="1" connectable="0">
          <mxGeometry x="-0.623" y="1" relative="1" as="geometry">
            <mxPoint x="18" y="-15" as="offset" />
          </mxGeometry>
        </mxCell>
        <mxCell id="8_2ZYoCBY9e8-_BX9UNL-3" value="Dates" style="rhombus;whiteSpace=wrap;html=1;fillColor=#f8cecc;strokeColor=#b85450;gradientColor=#ea6b66;" parent="1" vertex="1">
          <mxGeometry x="1221" y="154" width="80" height="80" as="geometry" />
        </mxCell>
        <mxCell id="8_2ZYoCBY9e8-_BX9UNL-5" style="edgeStyle=orthogonalEdgeStyle;rounded=0;orthogonalLoop=1;jettySize=auto;html=1;exitX=0.5;exitY=1;exitDx=0;exitDy=0;entryX=0.5;entryY=0;entryDx=0;entryDy=0;" parent="1" source="8_2ZYoCBY9e8-_BX9UNL-4" target="8_2ZYoCBY9e8-_BX9UNL-3" edge="1">
          <mxGeometry relative="1" as="geometry" />
        </mxCell>
        <mxCell id="8_2ZYoCBY9e8-_BX9UNL-4" value="Start" style="ellipse;whiteSpace=wrap;html=1;aspect=fixed;fillColor=none;" parent="1" vertex="1">
          <mxGeometry x="1221" y="50" width="80" height="80" as="geometry" />
        </mxCell>
        <mxCell id="8_2ZYoCBY9e8-_BX9UNL-15" style="edgeStyle=orthogonalEdgeStyle;rounded=1;orthogonalLoop=1;jettySize=auto;html=1;exitX=0.5;exitY=1;exitDx=0;exitDy=0;entryX=0.5;entryY=0;entryDx=0;entryDy=0;curved=0;" parent="1" source="8_2ZYoCBY9e8-_BX9UNL-6" target="8_2ZYoCBY9e8-_BX9UNL-7" edge="1">
          <mxGeometry relative="1" as="geometry" />
        </mxCell>
        <mxCell id="8_2ZYoCBY9e8-_BX9UNL-6" value="Downlaod Timeshets from Sharepoint" style="rounded=1;whiteSpace=wrap;html=1;fillColor=#d5e8d4;gradientColor=#97d077;strokeColor=#82b366;" parent="1" vertex="1">
          <mxGeometry x="1350" y="219" width="120" height="60" as="geometry" />
        </mxCell>
        <mxCell id="8_2ZYoCBY9e8-_BX9UNL-17" style="edgeStyle=orthogonalEdgeStyle;rounded=1;orthogonalLoop=1;jettySize=auto;html=1;exitX=0.5;exitY=1;exitDx=0;exitDy=0;entryX=0.5;entryY=0;entryDx=0;entryDy=0;curved=0;" parent="1" source="8_2ZYoCBY9e8-_BX9UNL-7" target="8_2ZYoCBY9e8-_BX9UNL-8" edge="1">
          <mxGeometry relative="1" as="geometry" />
        </mxCell>
        <mxCell id="8_2ZYoCBY9e8-_BX9UNL-7" value="Analyze it" style="rounded=1;whiteSpace=wrap;html=1;fillColor=#d5e8d4;gradientColor=#97d077;strokeColor=#82b366;" parent="1" vertex="1">
          <mxGeometry x="1350" y="294" width="120" height="60" as="geometry" />
        </mxCell>
        <mxCell id="8_2ZYoCBY9e8-_BX9UNL-19" style="edgeStyle=orthogonalEdgeStyle;rounded=1;orthogonalLoop=1;jettySize=auto;html=1;exitX=0.5;exitY=1;exitDx=0;exitDy=0;entryX=0.5;entryY=0;entryDx=0;entryDy=0;curved=0;" parent="1" source="8_2ZYoCBY9e8-_BX9UNL-8" target="8_2ZYoCBY9e8-_BX9UNL-18" edge="1">
          <mxGeometry relative="1" as="geometry" />
        </mxCell>
        <mxCell id="8_2ZYoCBY9e8-_BX9UNL-8" value="Use only missing dates" style="rounded=1;whiteSpace=wrap;html=1;fillColor=#d5e8d4;gradientColor=#97d077;strokeColor=#82b366;" parent="1" vertex="1">
          <mxGeometry x="1350" y="374" width="120" height="60" as="geometry" />
        </mxCell>
        <mxCell id="8_2ZYoCBY9e8-_BX9UNL-37" style="edgeStyle=orthogonalEdgeStyle;rounded=1;orthogonalLoop=1;jettySize=auto;html=1;exitX=0.5;exitY=1;exitDx=0;exitDy=0;entryX=0.5;entryY=0;entryDx=0;entryDy=0;" parent="1" source="8_2ZYoCBY9e8-_BX9UNL-12" target="8_2ZYoCBY9e8-_BX9UNL-18" edge="1">
          <mxGeometry relative="1" as="geometry">
            <Array as="points">
              <mxPoint x="1120" y="460" />
              <mxPoint x="1261" y="460" />
            </Array>
          </mxGeometry>
        </mxCell>
        <mxCell id="8_2ZYoCBY9e8-_BX9UNL-12" value="Define Start and End Date for downlaod" style="rounded=1;whiteSpace=wrap;html=1;fillColor=#f8cecc;gradientColor=#ea6b66;strokeColor=#b85450;" parent="1" vertex="1">
          <mxGeometry x="1060" y="294" width="120" height="60" as="geometry" />
        </mxCell>
        <mxCell id="8_2ZYoCBY9e8-_BX9UNL-24" style="edgeStyle=orthogonalEdgeStyle;rounded=1;orthogonalLoop=1;jettySize=auto;html=1;exitX=0.5;exitY=1;exitDx=0;exitDy=0;entryX=0.5;entryY=0;entryDx=0;entryDy=0;curved=0;" parent="1" source="8_2ZYoCBY9e8-_BX9UNL-18" target="8_2ZYoCBY9e8-_BX9UNL-21" edge="1">
          <mxGeometry relative="1" as="geometry" />
        </mxCell>
        <mxCell id="8_2ZYoCBY9e8-_BX9UNL-18" value="Download" style="rounded=1;whiteSpace=wrap;html=1;fillColor=#d5e8d4;gradientColor=#97d077;strokeColor=#82b366;" parent="1" vertex="1">
          <mxGeometry x="1201" y="490" width="120" height="60" as="geometry" />
        </mxCell>
        <mxCell id="8_2ZYoCBY9e8-_BX9UNL-25" style="edgeStyle=orthogonalEdgeStyle;rounded=1;orthogonalLoop=1;jettySize=auto;html=1;exitX=0.5;exitY=1;exitDx=0;exitDy=0;entryX=0.5;entryY=0;entryDx=0;entryDy=0;curved=0;" parent="1" source="8_2ZYoCBY9e8-_BX9UNL-21" target="8_2ZYoCBY9e8-_BX9UNL-22" edge="1">
          <mxGeometry relative="1" as="geometry" />
        </mxCell>
        <mxCell id="8_2ZYoCBY9e8-_BX9UNL-21" value="Event Handler" style="rounded=1;whiteSpace=wrap;html=1;fillColor=#d5e8d4;gradientColor=#97d077;strokeColor=#82b366;" parent="1" vertex="1">
          <mxGeometry x="1201" y="570" width="120" height="60" as="geometry" />
        </mxCell>
        <mxCell id="8_2ZYoCBY9e8-_BX9UNL-26" style="edgeStyle=orthogonalEdgeStyle;rounded=1;orthogonalLoop=1;jettySize=auto;html=1;exitX=0.5;exitY=1;exitDx=0;exitDy=0;entryX=0.5;entryY=0;entryDx=0;entryDy=0;curved=0;" parent="1" source="8_2ZYoCBY9e8-_BX9UNL-22" target="8_2ZYoCBY9e8-_BX9UNL-23" edge="1">
          <mxGeometry relative="1" as="geometry" />
        </mxCell>
        <mxCell id="8_2ZYoCBY9e8-_BX9UNL-22" value="Summary Print" style="rounded=1;whiteSpace=wrap;html=1;fillColor=#d5e8d4;gradientColor=#97d077;strokeColor=#82b366;" parent="1" vertex="1">
          <mxGeometry x="1201" y="650" width="120" height="60" as="geometry" />
        </mxCell>
        <mxCell id="8_2ZYoCBY9e8-_BX9UNL-32" style="edgeStyle=orthogonalEdgeStyle;rounded=1;orthogonalLoop=1;jettySize=auto;html=1;exitX=1;exitY=0.5;exitDx=0;exitDy=0;entryX=0.5;entryY=0;entryDx=0;entryDy=0;curved=0;" parent="1" source="8_2ZYoCBY9e8-_BX9UNL-23" target="8_2ZYoCBY9e8-_BX9UNL-30" edge="1">
          <mxGeometry relative="1" as="geometry" />
        </mxCell>
        <mxCell id="9m3ZTxLsY7L8N2ia78Li-1" value="Yes" style="edgeLabel;html=1;align=center;verticalAlign=middle;resizable=0;points=[];labelBackgroundColor=none;" parent="8_2ZYoCBY9e8-_BX9UNL-32" vertex="1" connectable="0">
          <mxGeometry x="-0.8291" y="1" relative="1" as="geometry">
            <mxPoint y="-9" as="offset" />
          </mxGeometry>
        </mxCell>
        <mxCell id="8_2ZYoCBY9e8-_BX9UNL-33" style="edgeStyle=orthogonalEdgeStyle;rounded=1;orthogonalLoop=1;jettySize=auto;html=1;exitX=0.5;exitY=1;exitDx=0;exitDy=0;entryX=0.5;entryY=0;entryDx=0;entryDy=0;curved=0;" parent="1" source="8_2ZYoCBY9e8-_BX9UNL-23" target="8_2ZYoCBY9e8-_BX9UNL-31" edge="1">
          <mxGeometry relative="1" as="geometry" />
        </mxCell>
        <mxCell id="9m3ZTxLsY7L8N2ia78Li-2" value="No" style="edgeLabel;html=1;align=center;verticalAlign=middle;resizable=0;points=[];labelBackgroundColor=none;" parent="8_2ZYoCBY9e8-_BX9UNL-33" vertex="1" connectable="0">
          <mxGeometry x="-0.8864" y="-1" relative="1" as="geometry">
            <mxPoint x="-10" y="5" as="offset" />
          </mxGeometry>
        </mxCell>
        <mxCell id="8_2ZYoCBY9e8-_BX9UNL-23" value="Upload" style="rhombus;whiteSpace=wrap;html=1;fillColor=#f8cecc;gradientColor=#ea6b66;strokeColor=#b85450;" parent="1" vertex="1">
          <mxGeometry x="1221" y="730" width="80" height="80" as="geometry" />
        </mxCell>
        <mxCell id="8_2ZYoCBY9e8-_BX9UNL-34" style="edgeStyle=orthogonalEdgeStyle;rounded=1;orthogonalLoop=1;jettySize=auto;html=1;exitX=0.5;exitY=1;exitDx=0;exitDy=0;entryX=0.5;entryY=0;entryDx=0;entryDy=0;curved=0;" parent="1" source="8_2ZYoCBY9e8-_BX9UNL-30" target="8_2ZYoCBY9e8-_BX9UNL-31" edge="1">
          <mxGeometry relative="1" as="geometry" />
        </mxCell>
        <mxCell id="8_2ZYoCBY9e8-_BX9UNL-30" value="Upload data to Sharpoint" style="rounded=1;whiteSpace=wrap;html=1;fillColor=#d5e8d4;gradientColor=#97d077;strokeColor=#82b366;" parent="1" vertex="1">
          <mxGeometry x="1330" y="800" width="120" height="60" as="geometry" />
        </mxCell>
        <mxCell id="8_2ZYoCBY9e8-_BX9UNL-36" style="edgeStyle=orthogonalEdgeStyle;rounded=0;orthogonalLoop=1;jettySize=auto;html=1;exitX=0.5;exitY=1;exitDx=0;exitDy=0;entryX=0.5;entryY=0;entryDx=0;entryDy=0;" parent="1" source="8_2ZYoCBY9e8-_BX9UNL-31" target="8_2ZYoCBY9e8-_BX9UNL-35" edge="1">
          <mxGeometry relative="1" as="geometry" />
        </mxCell>
        <mxCell id="8_2ZYoCBY9e8-_BX9UNL-31" value="Open .csv" style="rounded=1;whiteSpace=wrap;html=1;fillColor=#d5e8d4;gradientColor=#97d077;strokeColor=#82b366;" parent="1" vertex="1">
          <mxGeometry x="1201" y="900" width="120" height="60" as="geometry" />
        </mxCell>
        <mxCell id="8_2ZYoCBY9e8-_BX9UNL-35" value="End" style="ellipse;whiteSpace=wrap;html=1;aspect=fixed;fillColor=none;" parent="1" vertex="1">
          <mxGeometry x="1221" y="990" width="80" height="80" as="geometry" />
        </mxCell>
        <mxCell id="2dO4fjLpu-WYjDib3PqZ-4" value="" style="shape=flexArrow;endArrow=classic;html=1;rounded=0;fillColor=#ffcd28;gradientColor=#ffa500;strokeColor=#d79b00;endWidth=7.209302325581396;endSize=6.574418604651163;" parent="1" edge="1">
          <mxGeometry width="50" height="50" relative="1" as="geometry">
            <mxPoint x="614" y="44.999999999999986" as="sourcePoint" />
            <mxPoint x="654" y="44.999999999999986" as="targetPoint" />
          </mxGeometry>
        </mxCell>
        <mxCell id="2dO4fjLpu-WYjDib3PqZ-8" value="" style="shape=flexArrow;endArrow=classic;html=1;rounded=0;fillColor=#ffcd28;gradientColor=#ffa500;strokeColor=#d79b00;endWidth=7.209302325581396;endSize=6.574418604651163;" parent="1" edge="1">
          <mxGeometry width="50" height="50" relative="1" as="geometry">
            <mxPoint x="330" y="28.899999999999988" as="sourcePoint" />
            <mxPoint x="370" y="28.899999999999988" as="targetPoint" />
          </mxGeometry>
        </mxCell>
        <mxCell id="2dO4fjLpu-WYjDib3PqZ-9" value="" style="shape=flexArrow;endArrow=classic;html=1;rounded=0;fillColor=#ffcd28;gradientColor=#ffa500;strokeColor=#d79b00;endWidth=7.209302325581396;endSize=6.574418604651163;" parent="1" edge="1">
          <mxGeometry width="50" height="50" relative="1" as="geometry">
            <mxPoint x="95" y="34.889999999999986" as="sourcePoint" />
            <mxPoint x="135" y="34.889999999999986" as="targetPoint" />
          </mxGeometry>
        </mxCell>
        <mxCell id="2dO4fjLpu-WYjDib3PqZ-10" value="" style="shape=flexArrow;endArrow=classic;html=1;rounded=0;fillColor=#ffcd28;gradientColor=#ffa500;strokeColor=#d79b00;endWidth=7.209302325581396;endSize=6.574418604651163;" parent="1" edge="1">
          <mxGeometry width="50" height="50" relative="1" as="geometry">
            <mxPoint x="150" y="254.89" as="sourcePoint" />
            <mxPoint x="190" y="254.89" as="targetPoint" />
          </mxGeometry>
        </mxCell>
        <mxCell id="2dO4fjLpu-WYjDib3PqZ-11" value="" style="shape=flexArrow;endArrow=classic;html=1;rounded=0;fillColor=#ffcd28;gradientColor=#ffa500;strokeColor=#d79b00;endWidth=7.209302325581396;endSize=6.574418604651163;" parent="1" edge="1">
          <mxGeometry width="50" height="50" relative="1" as="geometry">
            <mxPoint x="413.5" y="254.89" as="sourcePoint" />
            <mxPoint x="453.5" y="254.89" as="targetPoint" />
          </mxGeometry>
        </mxCell>
        <mxCell id="2dO4fjLpu-WYjDib3PqZ-12" value="" style="shape=flexArrow;endArrow=classic;html=1;rounded=0;fillColor=#ffcd28;gradientColor=#ffa500;strokeColor=#d79b00;endWidth=7.209302325581396;endSize=6.574418604651163;" parent="1" edge="1">
          <mxGeometry width="50" height="50" relative="1" as="geometry">
            <mxPoint x="130" y="474.89" as="sourcePoint" />
            <mxPoint x="170" y="474.89" as="targetPoint" />
          </mxGeometry>
        </mxCell>
        <mxCell id="ApvRFcBczbXoXY5R-yyq-4" value="" style="endArrow=none;dashed=1;html=1;dashPattern=1 1;strokeWidth=2;rounded=0;fillColor=#dae8fc;strokeColor=#6c8ebf;gradientColor=#7ea6e0;" parent="1" edge="1">
          <mxGeometry width="50" height="50" relative="1" as="geometry">
            <mxPoint x="30" y="110" as="sourcePoint" />
            <mxPoint x="210" y="110" as="targetPoint" />
          </mxGeometry>
        </mxCell>
        <mxCell id="ApvRFcBczbXoXY5R-yyq-5" value="" style="endArrow=none;dashed=1;html=1;dashPattern=1 1;strokeWidth=2;rounded=0;fillColor=#60a917;strokeColor=#2D7600;" parent="1" edge="1">
          <mxGeometry width="50" height="50" relative="1" as="geometry">
            <mxPoint x="30" y="140" as="sourcePoint" />
            <mxPoint x="210" y="140" as="targetPoint" />
          </mxGeometry>
        </mxCell>
        <mxCell id="ApvRFcBczbXoXY5R-yyq-34" value="" style="endArrow=none;dashed=1;html=1;dashPattern=1 1;strokeWidth=2;rounded=0;fillColor=#f8cecc;strokeColor=#b85450;gradientColor=#ea6b66;" parent="1" edge="1">
          <mxGeometry width="50" height="50" relative="1" as="geometry">
            <mxPoint x="250" y="84" as="sourcePoint" />
            <mxPoint x="430" y="84" as="targetPoint" />
          </mxGeometry>
        </mxCell>
        <mxCell id="ApvRFcBczbXoXY5R-yyq-35" value="" style="endArrow=none;dashed=1;html=1;dashPattern=1 1;strokeWidth=2;rounded=0;fillColor=#f8cecc;strokeColor=#b85450;gradientColor=#ea6b66;" parent="1" edge="1">
          <mxGeometry width="50" height="50" relative="1" as="geometry">
            <mxPoint x="250" y="108" as="sourcePoint" />
            <mxPoint x="430" y="108" as="targetPoint" />
          </mxGeometry>
        </mxCell>
        <mxCell id="ApvRFcBczbXoXY5R-yyq-57" value="" style="endArrow=none;dashed=1;html=1;dashPattern=1 1;strokeWidth=2;rounded=0;fillColor=#d5e8d4;strokeColor=#82b366;gradientColor=#97d077;" parent="1" edge="1">
          <mxGeometry width="50" height="50" relative="1" as="geometry">
            <mxPoint x="30" y="330" as="sourcePoint" />
            <mxPoint x="270" y="330" as="targetPoint" />
          </mxGeometry>
        </mxCell>
        <mxCell id="ApvRFcBczbXoXY5R-yyq-67" value="" style="endArrow=none;dashed=1;html=1;dashPattern=1 1;strokeWidth=2;rounded=0;fillColor=#dae8fc;strokeColor=#6c8ebf;gradientColor=#7ea6e0;" parent="1" edge="1">
          <mxGeometry width="50" height="50" relative="1" as="geometry">
            <mxPoint x="30" y="350" as="sourcePoint" />
            <mxPoint x="270" y="350" as="targetPoint" />
          </mxGeometry>
        </mxCell>
        <mxCell id="ApvRFcBczbXoXY5R-yyq-68" value="" style="endArrow=none;dashed=1;html=1;dashPattern=1 1;strokeWidth=2;rounded=0;fillColor=#d5e8d4;strokeColor=#82b366;gradientColor=#97d077;" parent="1" edge="1">
          <mxGeometry width="50" height="50" relative="1" as="geometry">
            <mxPoint x="30" y="390" as="sourcePoint" />
            <mxPoint x="270" y="390" as="targetPoint" />
          </mxGeometry>
        </mxCell>
        <mxCell id="ApvRFcBczbXoXY5R-yyq-73" value="" style="endArrow=none;dashed=1;html=1;dashPattern=1 1;strokeWidth=2;rounded=0;fillColor=#d5e8d4;strokeColor=#82b366;gradientColor=#97d077;" parent="1" edge="1">
          <mxGeometry width="50" height="50" relative="1" as="geometry">
            <mxPoint x="340" y="330" as="sourcePoint" />
            <mxPoint x="530" y="330" as="targetPoint" />
          </mxGeometry>
        </mxCell>
        <mxCell id="ApvRFcBczbXoXY5R-yyq-90" value="" style="endArrow=none;dashed=1;html=1;dashPattern=1 1;strokeWidth=2;rounded=0;fillColor=#d5e8d4;strokeColor=#82b366;gradientColor=#97d077;" parent="1" edge="1">
          <mxGeometry width="50" height="50" relative="1" as="geometry">
            <mxPoint x="580" y="360" as="sourcePoint" />
            <mxPoint x="780" y="360" as="targetPoint" />
          </mxGeometry>
        </mxCell>
        <mxCell id="gob5DYd8oA5bV7pTSi-1-2" value="" style="endArrow=none;dashed=1;html=1;dashPattern=1 1;strokeWidth=2;rounded=0;fillColor=#f8cecc;strokeColor=#b85450;gradientColor=#ea6b66;" parent="1" edge="1">
          <mxGeometry width="50" height="50" relative="1" as="geometry">
            <mxPoint x="340" y="270" as="sourcePoint" />
            <mxPoint x="530" y="270" as="targetPoint" />
          </mxGeometry>
        </mxCell>
        <mxCell id="gob5DYd8oA5bV7pTSi-1-3" value="" style="endArrow=none;dashed=1;html=1;dashPattern=1 1;strokeWidth=2;rounded=0;fillColor=#f8cecc;strokeColor=#b85450;gradientColor=#ea6b66;" parent="1" edge="1">
          <mxGeometry width="50" height="50" relative="1" as="geometry">
            <mxPoint x="540" y="120" as="sourcePoint" />
            <mxPoint x="720" y="120" as="targetPoint" />
          </mxGeometry>
        </mxCell>
        <mxCell id="gob5DYd8oA5bV7pTSi-1-4" value="Midnight" style="edgeLabel;html=1;align=center;verticalAlign=middle;resizable=0;points=[];labelBackgroundColor=none;" parent="gob5DYd8oA5bV7pTSi-1-3" vertex="1" connectable="0">
          <mxGeometry x="-0.0905" y="1" relative="1" as="geometry">
            <mxPoint x="8" y="-9" as="offset" />
          </mxGeometry>
        </mxCell>
        <mxCell id="gob5DYd8oA5bV7pTSi-1-6" value="" style="endArrow=none;dashed=1;html=1;dashPattern=1 1;strokeWidth=2;rounded=0;fillColor=#d5e8d4;strokeColor=#82b366;gradientColor=#97d077;" parent="1" edge="1">
          <mxGeometry width="50" height="50" relative="1" as="geometry">
            <mxPoint x="40" y="580" as="sourcePoint" />
            <mxPoint x="270" y="580" as="targetPoint" />
          </mxGeometry>
        </mxCell>
        <mxCell id="2dO4fjLpu-WYjDib3PqZ-1" value="" style="endArrow=none;dashed=1;html=1;dashPattern=1 1;strokeWidth=2;rounded=0;fillColor=#f8cecc;strokeColor=#b85450;gradientColor=#ea6b66;" parent="1" edge="1">
          <mxGeometry width="50" height="50" relative="1" as="geometry">
            <mxPoint x="30" y="270" as="sourcePoint" />
            <mxPoint x="270" y="270" as="targetPoint" />
          </mxGeometry>
        </mxCell>
        <mxCell id="2dO4fjLpu-WYjDib3PqZ-2" value="" style="endArrow=none;dashed=1;html=1;dashPattern=1 1;strokeWidth=2;rounded=0;fillColor=#f8cecc;strokeColor=#b85450;gradientColor=#ea6b66;entryX=1;entryY=1;entryDx=0;entryDy=0;" parent="1" target="ApvRFcBczbXoXY5R-yyq-92" edge="1">
          <mxGeometry width="50" height="50" relative="1" as="geometry">
            <mxPoint x="580" y="270" as="sourcePoint" />
            <mxPoint x="790" y="270" as="targetPoint" />
          </mxGeometry>
        </mxCell>
        <mxCell id="2dO4fjLpu-WYjDib3PqZ-7" value="" style="endArrow=none;dashed=1;html=1;dashPattern=1 1;strokeWidth=2;rounded=0;fillColor=#f8cecc;strokeColor=#b85450;gradientColor=#ea6b66;entryX=1;entryY=1;entryDx=0;entryDy=0;" parent="1" edge="1">
          <mxGeometry width="50" height="50" relative="1" as="geometry">
            <mxPoint x="539" y="59.769999999999996" as="sourcePoint" />
            <mxPoint x="719" y="59.769999999999996" as="targetPoint" />
          </mxGeometry>
        </mxCell>
        <mxCell id="ApvRFcBczbXoXY5R-yyq-61" value="Event 2" style="rounded=1;whiteSpace=wrap;html=1;fillColor=#f8cecc;strokeColor=#b85450;gradientColor=#ea6b66;" parent="1" vertex="1">
          <mxGeometry x="209" y="270" width="50" height="60" as="geometry" />
        </mxCell>
        <mxCell id="ApvRFcBczbXoXY5R-yyq-64" value="Event 1" style="rounded=1;whiteSpace=wrap;html=1;fillColor=#d5e8d4;strokeColor=#82b366;gradientColor=#97d077;" parent="1" vertex="1">
          <mxGeometry x="209" y="390" width="50" height="30" as="geometry" />
        </mxCell>
        <mxCell id="ApvRFcBczbXoXY5R-yyq-69" value="Event 1" style="rounded=1;whiteSpace=wrap;html=1;fillColor=#d5e8d4;strokeColor=#82b366;gradientColor=#97d077;" parent="1" vertex="1">
          <mxGeometry x="209" y="330" width="50" height="20" as="geometry" />
        </mxCell>
        <mxCell id="ApvRFcBczbXoXY5R-yyq-71" value="Event 3" style="rounded=1;whiteSpace=wrap;html=1;fillColor=#dae8fc;strokeColor=#6c8ebf;gradientColor=#7ea6e0;" parent="1" vertex="1">
          <mxGeometry x="209" y="350" width="50" height="40" as="geometry" />
        </mxCell>
        <mxCell id="ApvRFcBczbXoXY5R-yyq-77" value="Event 2" style="rounded=1;whiteSpace=wrap;html=1;fillColor=#f8cecc;strokeColor=#b85450;gradientColor=#ea6b66;" parent="1" vertex="1">
          <mxGeometry x="475" y="270" width="50" height="60" as="geometry" />
        </mxCell>
        <mxCell id="ApvRFcBczbXoXY5R-yyq-79" value="Event 1" style="rounded=1;whiteSpace=wrap;html=1;fillColor=#d5e8d4;strokeColor=#82b366;gradientColor=#97d077;" parent="1" vertex="1">
          <mxGeometry x="475" y="330" width="50" height="90" as="geometry" />
        </mxCell>
        <mxCell id="2dO4fjLpu-WYjDib3PqZ-13" value="" style="endArrow=none;dashed=1;html=1;dashPattern=1 1;strokeWidth=2;rounded=0;fillColor=#f8cecc;strokeColor=#b85450;gradientColor=#ea6b66;" parent="1" edge="1">
          <mxGeometry width="50" height="50" relative="1" as="geometry">
            <mxPoint x="40" y="489.31" as="sourcePoint" />
            <mxPoint x="270" y="490" as="targetPoint" />
          </mxGeometry>
        </mxCell>
        <mxCell id="gob5DYd8oA5bV7pTSi-1-9" value="Event 2" style="rounded=1;whiteSpace=wrap;html=1;fillColor=#f8cecc;strokeColor=#b85450;gradientColor=#ea6b66;" parent="1" vertex="1">
          <mxGeometry x="214" y="490" width="50" height="90" as="geometry" />
        </mxCell>
        <mxCell id="gob5DYd8oA5bV7pTSi-1-11" value="Event 1" style="rounded=1;whiteSpace=wrap;html=1;fillColor=#d5e8d4;strokeColor=#82b366;gradientColor=#97d077;" parent="1" vertex="1">
          <mxGeometry x="164" y="520" width="50" height="140" as="geometry" />
        </mxCell>
        <mxCell id="ApvRFcBczbXoXY5R-yyq-93" value="Event 2" style="rounded=1;whiteSpace=wrap;html=1;fillColor=#f8cecc;strokeColor=#b85450;gradientColor=#ea6b66;" parent="1" vertex="1">
          <mxGeometry x="725" y="270" width="50" height="90" as="geometry" />
        </mxCell>
        <mxCell id="ApvRFcBczbXoXY5R-yyq-95" value="Event 1" style="rounded=1;whiteSpace=wrap;html=1;fillColor=#d5e8d4;strokeColor=#82b366;gradientColor=#97d077;" parent="1" vertex="1">
          <mxGeometry x="725" y="360" width="50" height="90" as="geometry" />
        </mxCell>
        <mxCell id="ApvRFcBczbXoXY5R-yyq-26" value="Event 2" style="rounded=1;whiteSpace=wrap;html=1;fillColor=#f8cecc;strokeColor=#b85450;gradientColor=#ea6b66;" parent="1" vertex="1">
          <mxGeometry x="664" y="60" width="50" height="60" as="geometry" />
        </mxCell>
        <mxCell id="ApvRFcBczbXoXY5R-yyq-31" value="Event 2" style="rounded=1;whiteSpace=wrap;html=1;fillColor=#f8cecc;strokeColor=#b85450;gradientColor=#ea6b66;" parent="1" vertex="1">
          <mxGeometry x="664" y="120" width="50" height="30" as="geometry" />
        </mxCell>
        <mxCell id="ApvRFcBczbXoXY5R-yyq-41" value="Event 1" style="rounded=1;whiteSpace=wrap;html=1;fillColor=#d5e8d4;strokeColor=#82b366;gradientColor=#97d077;" parent="1" vertex="1">
          <mxGeometry x="375" y="108" width="50" height="46" as="geometry" />
        </mxCell>
        <mxCell id="ApvRFcBczbXoXY5R-yyq-42" value="Event 1" style="rounded=1;whiteSpace=wrap;html=1;fillColor=#d5e8d4;strokeColor=#82b366;gradientColor=#97d077;" parent="1" vertex="1">
          <mxGeometry x="375" y="44" width="50" height="40" as="geometry" />
        </mxCell>
        <mxCell id="ApvRFcBczbXoXY5R-yyq-8" value="Event 2" style="rounded=1;whiteSpace=wrap;html=1;fillColor=#f8cecc;strokeColor=#b85450;gradientColor=#ea6b66;" parent="1" vertex="1">
          <mxGeometry x="154" y="50" width="50" height="60" as="geometry" />
        </mxCell>
        <mxCell id="ApvRFcBczbXoXY5R-yyq-15" value="Filled" style="rounded=1;whiteSpace=wrap;html=1;fillColor=#dae8fc;strokeColor=#6c8ebf;gradientColor=#7ea6e0;" parent="1" vertex="1">
          <mxGeometry x="154" y="110" width="50" height="30" as="geometry" />
        </mxCell>
        <mxCell id="ApvRFcBczbXoXY5R-yyq-17" value="Event 1" style="rounded=1;whiteSpace=wrap;html=1;fillColor=#d5e8d4;strokeColor=#82b366;gradientColor=#97d077;" parent="1" vertex="1">
          <mxGeometry x="154" y="140" width="50" height="70" as="geometry" />
        </mxCell>
        <mxCell id="2dO4fjLpu-WYjDib3PqZ-14" value="" style="endArrow=none;dashed=1;html=1;dashPattern=1 1;strokeWidth=2;rounded=0;fillColor=#d5e8d4;strokeColor=#82b366;gradientColor=#97d077;" parent="1" edge="1">
          <mxGeometry width="50" height="50" relative="1" as="geometry">
            <mxPoint x="250" y="45" as="sourcePoint" />
            <mxPoint x="430" y="45" as="targetPoint" />
          </mxGeometry>
        </mxCell>
        <mxCell id="2dO4fjLpu-WYjDib3PqZ-16" value="" style="endArrow=none;dashed=1;html=1;dashPattern=1 1;strokeWidth=2;rounded=0;fillColor=#f8cecc;strokeColor=#b85450;gradientColor=#ea6b66;" parent="1" edge="1">
          <mxGeometry width="50" height="50" relative="1" as="geometry">
            <mxPoint x="29" y="49.81" as="sourcePoint" />
            <mxPoint x="209" y="49.81" as="targetPoint" />
          </mxGeometry>
        </mxCell>
        <mxCell id="IQlJq_zm6FFHnRf-hKyG-1" value="Event 1" style="rounded=1;whiteSpace=wrap;html=1;fillColor=#d5e8d4;strokeColor=#82b366;gradientColor=#97d077;" parent="1" vertex="1">
          <mxGeometry x="375" y="615" width="50" height="55" as="geometry" />
        </mxCell>
        <mxCell id="IQlJq_zm6FFHnRf-hKyG-3" value="TimeSheet" style="text;html=1;align=center;verticalAlign=middle;whiteSpace=wrap;rounded=0;" parent="1" vertex="1">
          <mxGeometry x="480" y="495" width="60" height="30" as="geometry" />
        </mxCell>
        <mxCell id="IQlJq_zm6FFHnRf-hKyG-4" value="" style="shape=flexArrow;endArrow=classic;html=1;rounded=0;fillColor=#ffcd28;gradientColor=#ffa500;strokeColor=#d79b00;endWidth=7.209302325581396;endSize=6.574418604651163;" parent="1" edge="1">
          <mxGeometry width="50" height="50" relative="1" as="geometry">
            <mxPoint x="434" y="509.88" as="sourcePoint" />
            <mxPoint x="474" y="509.88" as="targetPoint" />
          </mxGeometry>
        </mxCell>
        <mxCell id="IQlJq_zm6FFHnRf-hKyG-5" value="Event 1" style="rounded=1;whiteSpace=wrap;html=1;fillColor=#d5e8d4;strokeColor=#82b366;gradientColor=#97d077;" parent="1" vertex="1">
          <mxGeometry x="375" y="525" width="50" height="90" as="geometry" />
        </mxCell>
        <mxCell id="IQlJq_zm6FFHnRf-hKyG-6" value="" style="endArrow=none;dashed=1;html=1;dashPattern=1 1;strokeWidth=2;rounded=0;fillColor=#d5e8d4;strokeColor=#82b366;gradientColor=#97d077;" parent="1" edge="1">
          <mxGeometry width="50" height="50" relative="1" as="geometry">
            <mxPoint x="360" y="615" as="sourcePoint" />
            <mxPoint x="440" y="615" as="targetPoint" />
          </mxGeometry>
        </mxCell>
        <mxCell id="IQlJq_zm6FFHnRf-hKyG-7" value="" style="endArrow=none;dashed=1;html=1;dashPattern=1 1;strokeWidth=2;rounded=0;fillColor=#d5e8d4;strokeColor=#82b366;gradientColor=#97d077;entryX=1;entryY=1;entryDx=0;entryDy=0;" parent="1" target="IQlJq_zm6FFHnRf-hKyG-3" edge="1">
          <mxGeometry width="50" height="50" relative="1" as="geometry">
            <mxPoint x="360" y="525" as="sourcePoint" />
            <mxPoint x="550" y="525" as="targetPoint" />
          </mxGeometry>
        </mxCell>
        <mxCell id="IQlJq_zm6FFHnRf-hKyG-9" value="Event 1" style="rounded=1;whiteSpace=wrap;html=1;fillColor=#d5e8d4;strokeColor=#82b366;gradientColor=#97d077;" parent="1" vertex="1">
          <mxGeometry x="485" y="525" width="50" height="145" as="geometry" />
        </mxCell>
        <mxCell id="IQlJq_zm6FFHnRf-hKyG-10" value="TimeSheet" style="text;html=1;align=center;verticalAlign=middle;whiteSpace=wrap;rounded=0;" parent="1" vertex="1">
          <mxGeometry x="365" y="495" width="60" height="30" as="geometry" />
        </mxCell>
        <mxCell id="iEEjYzitlkoqQWNJuwqU-1" value="Event 1" style="rounded=1;whiteSpace=wrap;html=1;fillColor=#d5e8d4;strokeColor=#82b366;gradientColor=#97d077;" vertex="1" parent="1">
          <mxGeometry x="56" y="850.23" width="50" height="20" as="geometry" />
        </mxCell>
        <mxCell id="iEEjYzitlkoqQWNJuwqU-2" value="Event 2" style="rounded=1;whiteSpace=wrap;html=1;fillColor=#f8cecc;strokeColor=#b85450;gradientColor=#ea6b66;" vertex="1" parent="1">
          <mxGeometry x="56" y="740" width="50" height="20" as="geometry" />
        </mxCell>
        <mxCell id="iEEjYzitlkoqQWNJuwqU-3" value="Calendar" style="text;html=1;align=center;verticalAlign=middle;whiteSpace=wrap;rounded=0;" vertex="1" parent="1">
          <mxGeometry x="51" y="710" width="60" height="30" as="geometry" />
        </mxCell>
        <mxCell id="iEEjYzitlkoqQWNJuwqU-4" value="TimeSheet" style="text;html=1;align=center;verticalAlign=middle;whiteSpace=wrap;rounded=0;" vertex="1" parent="1">
          <mxGeometry x="170" y="710" width="60" height="30" as="geometry" />
        </mxCell>
        <mxCell id="iEEjYzitlkoqQWNJuwqU-5" value="" style="shape=flexArrow;endArrow=classic;html=1;rounded=0;fillColor=#ffcd28;gradientColor=#ffa500;strokeColor=#d79b00;endWidth=7.209302325581396;endSize=6.574418604651163;" edge="1" parent="1">
          <mxGeometry width="50" height="50" relative="1" as="geometry">
            <mxPoint x="116" y="724.89" as="sourcePoint" />
            <mxPoint x="156" y="724.89" as="targetPoint" />
          </mxGeometry>
        </mxCell>
        <mxCell id="iEEjYzitlkoqQWNJuwqU-6" value="" style="endArrow=none;dashed=1;html=1;dashPattern=1 1;strokeWidth=2;rounded=0;fillColor=#dae8fc;strokeColor=#6c8ebf;gradientColor=#7ea6e0;" edge="1" parent="1">
          <mxGeometry width="50" height="50" relative="1" as="geometry">
            <mxPoint x="50" y="760" as="sourcePoint" />
            <mxPoint x="230" y="760" as="targetPoint" />
          </mxGeometry>
        </mxCell>
        <mxCell id="iEEjYzitlkoqQWNJuwqU-7" value="" style="endArrow=none;dashed=1;html=1;dashPattern=1 1;strokeWidth=2;rounded=0;fillColor=#60a917;strokeColor=#2D7600;" edge="1" parent="1">
          <mxGeometry width="50" height="50" relative="1" as="geometry">
            <mxPoint x="51" y="850" as="sourcePoint" />
            <mxPoint x="231" y="850" as="targetPoint" />
          </mxGeometry>
        </mxCell>
        <mxCell id="iEEjYzitlkoqQWNJuwqU-8" value="Event 2" style="rounded=1;whiteSpace=wrap;html=1;fillColor=#f8cecc;strokeColor=#b85450;gradientColor=#ea6b66;" vertex="1" parent="1">
          <mxGeometry x="175" y="740" width="50" height="20" as="geometry" />
        </mxCell>
        <mxCell id="iEEjYzitlkoqQWNJuwqU-9" value="Filled1" style="rounded=1;whiteSpace=wrap;html=1;fillColor=#dae8fc;strokeColor=#6c8ebf;gradientColor=#7ea6e0;" vertex="1" parent="1">
          <mxGeometry x="175" y="760" width="50" height="30" as="geometry" />
        </mxCell>
        <mxCell id="iEEjYzitlkoqQWNJuwqU-10" value="Event 1" style="rounded=1;whiteSpace=wrap;html=1;fillColor=#d5e8d4;strokeColor=#82b366;gradientColor=#97d077;" vertex="1" parent="1">
          <mxGeometry x="175" y="850.23" width="50" height="20" as="geometry" />
        </mxCell>
        <mxCell id="iEEjYzitlkoqQWNJuwqU-11" value="" style="endArrow=none;dashed=1;html=1;dashPattern=1 1;strokeWidth=2;rounded=0;fillColor=#f8cecc;strokeColor=#b85450;gradientColor=#ea6b66;" edge="1" parent="1">
          <mxGeometry width="50" height="50" relative="1" as="geometry">
            <mxPoint x="50" y="739.81" as="sourcePoint" />
            <mxPoint x="230" y="739.81" as="targetPoint" />
          </mxGeometry>
        </mxCell>
        <mxCell id="iEEjYzitlkoqQWNJuwqU-13" value="Filled1" style="rounded=1;whiteSpace=wrap;html=1;fillColor=#dae8fc;strokeColor=#6c8ebf;gradientColor=#7ea6e0;" vertex="1" parent="1">
          <mxGeometry x="175" y="790" width="50" height="30" as="geometry" />
        </mxCell>
        <mxCell id="iEEjYzitlkoqQWNJuwqU-14" value="Filled1" style="rounded=1;whiteSpace=wrap;html=1;fillColor=#dae8fc;strokeColor=#6c8ebf;gradientColor=#7ea6e0;" vertex="1" parent="1">
          <mxGeometry x="175" y="820" width="50" height="30" as="geometry" />
        </mxCell>
      </root>
    </mxGraphModel>
  </diagram>
</mxfile>
